Coordinates
version=1
nRows=24
nColumns=24
inDegrees=yes

Units are S.I. units (second, meters, Newtons, ...)
Angles are in degrees.

endheader
time	pelvis_tilt	pelvis_list	pelvis_rotation	pelvis_tx	pelvis_ty	pelvis_tz	hip_flexion_r	hip_adduction_r	hip_rotation_r	knee_angle_r	ankle_angle_r	subtalar_angle_r	mtp_angle_r	hip_flexion_l	hip_adduction_l	hip_rotation_l	knee_angle_l	ankle_angle_l	subtalar_angle_l	mtp_angle_l	lumbar_extension	lumbar_bending	lumbar_rotation
      1.10833333	      0.87798861	     -4.88943696	     -0.84804815	     -0.20680425	      1.01772838	      0.32837838	    -16.57543256	     10.11913566	      3.30032223	     -4.31039301	     10.93929948	     -3.22211654	      3.26671471	     16.86425480	     -3.88767113	     -2.28140542	     11.47492330	      0.16262601	     -5.49035926	     -8.67138666	     -3.88871987	      3.01192786	      7.94447999
      1.11250000	      0.87130663	     -4.76286870	     -0.96504777	     -0.20122044	      1.01703355	      0.32824557	    -16.65263880	      9.93904582	      3.25367938	     -4.83363089	     11.27643319	     -2.97013953	      3.23136005	     16.86342927	     -3.72776418	     -1.98516574	     11.23982451	      0.20014888	     -5.62176595	     -8.55502900	     -3.85716147	      2.84491691	      8.06089256
      1.11666667	      0.87417634	     -4.61836983	     -1.06140741	     -0.19565325	      1.01640575	      0.32806636	    -16.71608917	      9.74749904	      3.17941835	     -5.38956800	     11.53430760	     -2.82222031	      3.17799710	     16.88542050	     -3.53944282	     -1.71862608	     10.88770814	      0.17610572	     -5.78484119	     -8.34962208	     -3.87255783	      2.67618844	      8.13465148
      1.12083333	      0.89917623	     -4.45966655	     -1.14525160	     -0.19005050	      1.01583041	      0.32789908	    -16.81859044	      9.55440363	      3.22178060	     -5.90838346	     11.67271381	     -2.93825962	      3.17170864	     16.89769375	     -3.33511801	     -1.48299500	     10.45242015	      0.18962507	     -5.86127410	     -8.29798382	     -3.89181208	      2.47548372	      8.15226157
      1.12500000	      0.95260480	     -4.28435009	     -1.22615149	     -0.18440247	      1.01532398	      0.32771407	    -16.90845696	      9.33454374	      3.13495896	     -6.52328166	     11.91235015	     -2.73576895	      2.84242981	     16.85921095	     -3.11444891	     -1.14106318	     10.01426647	      0.01102763	     -6.26692814	     -6.06102697	     -3.95266527	      2.23820477	      8.04615363
      1.12916667	      0.96076203	     -4.09239588	     -1.30670855	     -0.17872536	      1.01480443	      0.32754935	    -16.95783654	      9.11343878	      3.19536049	     -7.11931713	     12.07577960	     -2.84178951	      2.84797523	     16.90349140	     -2.87508449	     -0.91454189	      9.46330088	     -0.12007626	     -6.42087737	     -5.98953702	     -3.92711793	      1.97530166	      8.24629781
      1.13333333	      1.02040829	     -3.89481175	     -1.37700421	     -0.17303409	      1.01438941	      0.32735329	    -17.03414619	      8.88631027	      3.18925663	     -7.76485383	     12.18281909	     -2.95702059	      2.85551782	     16.90017235	     -2.62392671	     -0.70210433	      8.86216677	     -0.24674075	     -6.63945633	     -5.92851112	     -3.95373791	      1.71717811	      8.30028850
      1.13750000	      1.06867410	     -3.68031688	     -1.44384445	     -0.16729351	      1.01398692	      0.32713869	    -17.07523850	      8.63804194	      3.15398180	     -8.46301810	     12.34069877	     -2.87374707	      2.88721000	     16.87520272	     -2.35644053	     -0.32080761	      8.30807794	     -0.61586003	     -7.22819547	     -5.71415571	     -3.99691556	      1.43934051	      8.40463628
      1.14166667	      1.17678219	     -3.46906294	     -1.49696158	     -0.16154884	      1.01370999	      0.32690414	    -17.17798892	      8.40363185	      3.16499951	     -9.15189399	     12.32986931	     -3.06623517	      3.24655507	     16.80135957	     -2.08543835	     -0.02218948	      7.70998110	     -1.02629291	     -7.72973023	     -3.30328266	     -4.11740774	      1.17798058	      8.35553574
      1.14583333	      1.18821502	     -3.24531975	     -1.55260868	     -0.15575671	      1.01333359	      0.32664541	    -17.13480695	      8.15445473	      3.11899380	     -9.93492006	     12.41766076	     -3.06865638	      3.27772384	     16.86501945	     -1.79822176	      0.22552302	      7.01088710	     -1.32788245	     -8.16160084	     -3.21294130	     -4.07804205	      0.90376908	      8.46447106
      1.15000000	      1.27807696	     -3.00975987	     -1.59280362	     -0.14993822	      1.01310307	      0.32636343	    -17.17359864	      7.89672510	      3.08574124	    -10.71695188	     12.42936907	     -3.14631344	      3.33431269	     16.81860757	     -1.49399425	      0.53833219	      6.35799041	     -1.76900236	     -8.74545293	     -3.06948021	     -4.14940355	      0.60153629	      8.47644620
      1.15416667	      1.34669757	     -2.77064352	     -1.62896659	     -0.14408837	      1.01288319	      0.32607011	    -17.16870482	      7.63963263	      3.05307061	    -11.53839208	     12.39467590	     -3.25343233	      3.41616957	     16.80139177	     -1.18402812	      0.83462997	      5.68229637	     -2.24572956	     -9.33371224	     -2.89748623	     -4.18577493	      0.29663250	      8.48924012
      1.15833333	      1.43824872	     -2.50689260	     -1.65586109	     -0.13819955	      1.01274448	      0.32575011	    -17.17358378	      7.35999800	      3.00638077	    -12.38385737	     12.30429842	     -3.44423341	      3.44334840	     16.79053390	     -0.84285028	      0.95745117	      4.92591971	     -2.56375161	     -9.59481928	     -2.84879600	     -4.23538786	     -0.04028280	      8.48909439
      1.16250000	      1.49735764	     -2.27510330	     -1.68013919	     -0.13232069	      1.01258925	      0.32540043	    -17.10513964	      7.10824070	      2.92522090	    -13.30631519	     12.22931793	     -3.42608608	      3.59655388	     16.75289421	     -0.53546276	      1.41655460	      4.30831826	     -3.28402116	    -10.55777071	     -2.63108674	     -4.27044454	     -0.32871413	      8.49827867
      1.16666667	      1.58305511	     -2.01644043	     -1.69597148	     -0.12639327	      1.01252080	      0.32502896	    -17.05385214	      6.83071265	      2.83432182	    -14.24421902	     12.07432481	     -3.50862878	      3.79109449	     16.71157926	     -0.19535267	      1.70210179	      3.62606730	     -3.86256353	    -11.20179072	     -2.39522200	     -4.32033308	     -0.65745277	      8.47778012
      1.17083333	      1.67275771	     -1.75236252	     -1.70102364	     -0.12045572	      1.01249778	      0.32462112	    -16.98101753	      6.54583464	      2.71139012	    -15.22747943	     11.88543556	     -3.55472538	      4.01793144	     16.66887322	      0.15443093	      1.96823922	      2.93491998	     -4.43004565	    -11.80890401	     -2.16804226	     -4.37587494	     -0.98321148	      8.45639376
      1.17500000	      1.76558977	     -1.48645336	     -1.70524846	     -0.11450217	      1.01252504	      0.32419427	    -16.88405754	      6.25312580	      2.55304186	    -16.25667679	     11.65419724	     -3.57527771	      4.29371304	     16.61988002	      0.50615886	      2.22788818	      2.24238245	     -4.98809843	    -12.40054279	     -1.94155622	     -4.42837225	     -1.31886297	      8.42471116
      1.17916667	      1.84753116	     -1.21253335	     -1.69985541	     -0.10852725	      1.01258352	      0.32373023	    -16.74736959	      5.94873815	      2.35558823	    -17.33277649	     11.37715263	     -3.56906278	      4.62567685	     16.58318949	      0.86986332	      2.46524090	      1.54271092	     -5.52696232	    -12.95973482	     -1.72094557	     -4.46922852	     -1.65565772	      8.37851488
      1.18333333	      1.94032041	     -0.93517859	     -1.68875291	     -0.10253380	      1.01269938	      0.32323361	    -16.59610040	      5.63168215	      2.11976274	    -18.45212360	     11.05220791	     -3.51651542	      5.05148633	     16.52777213	      1.23885259	      2.70111245	      0.85015693	     -6.03278187	    -13.49601381	     -1.49418942	     -4.52080984	     -1.98865017	      8.32402970
      1.18750000	      2.08785684	     -0.65647629	     -1.69244575	     -0.09652824	      1.01296394	      0.32277534	    -16.50383748	      5.31218349	      1.94565582	    -19.53706582	     10.46215816	     -3.66377595	      7.88379165	     16.39866225	      1.60279289	      2.87252620	      0.18316914	     -6.56876919	    -14.01381682	     -0.30577080	     -4.64013196	     -2.34365887	      8.28249359
      1.19166667	      2.16107404	     -0.37128062	     -1.64660978	     -0.09053629	      1.01312463	      0.32217836	    -16.26156993	      4.96928686	      1.56281704	    -20.77255163	     10.11486052	     -3.44099152	      7.99275728	     16.39731068	      1.98606532	      2.99447752	     -0.59256850	     -6.83173272	    -14.20496968	     -0.28614286	     -4.66422047	     -2.68844087	      8.21833127
      1.19583333	      2.26263337	     -0.08769181	     -1.61525320	     -0.08453300	      1.01338189	      0.32159257	    -16.03424523	      4.61735201	      1.20728239	    -22.01850801	      9.63780104	     -3.27829737	      8.19416220	     16.33247094	      2.36469701	      3.15071227	     -1.30654722	     -7.17406501	    -14.56143397	     -0.27124988	     -4.72786864	     -3.02665310	      8.12971188
      1.20000000	      2.38071705	      0.19996066	     -1.57466554	     -0.07852743	      1.01370674	      0.32097903	    -15.80122556	      4.25018807	      0.81343812	    -23.29114608	      9.08250935	     -3.10405281	      8.48240499	     16.24388080	      2.74920858	      3.29390846	     -2.01677182	     -7.46043811	    -14.86668914	     -0.26794941	     -4.81255529	     -3.37358951	      8.03480351
      1.20416667	      2.47652092	      0.48265030	     -1.54220347	     -0.07250074	      1.01403857	      0.32032779	    -15.51105351	      3.86569761	      0.38030849	    -24.61162952	      8.45032687	     -2.89034609	      9.02303165	     16.16951946	      3.12719829	      3.40598029	     -2.72091140	     -7.65437286	    -15.15691652	     -0.28261868	     -4.84802289	     -3.67450272	      7.90642577
